<mxfile host="65bd71144e" pages="6">
    <diagram id="CVfWBbihMc4qUGPDFLDg" name="Solution">
        <mxGraphModel dx="1204" dy="779" grid="1" gridSize="10" guides="1" tooltips="1" connect="1" arrows="1" fold="1" page="1" pageScale="1" pageWidth="827" pageHeight="1169" math="0" shadow="0">
            <root>
                <mxCell id="4a_JY1OpyCybUqOFj23t-0"/>
                <mxCell id="4a_JY1OpyCybUqOFj23t-1" parent="4a_JY1OpyCybUqOFj23t-0"/>
                <mxCell id="w99aPFqhCIBnIL8ZS8Le-0" value="" style="shape=folder;fontStyle=1;spacingTop=10;tabWidth=106;tabHeight=20;tabPosition=left;html=1;" parent="4a_JY1OpyCybUqOFj23t-1" vertex="1">
                    <mxGeometry x="420" y="340" width="140" height="60" as="geometry"/>
                </mxCell>
                <mxCell id="w99aPFqhCIBnIL8ZS8Le-1" value="Service" style="text;align=left;fontStyle=1;verticalAlign=middle;spacingLeft=3;spacingRight=3;strokeColor=none;rotatable=0;points=[[0,0.5],[1,0.5]];portConstraint=eastwest;" parent="4a_JY1OpyCybUqOFj23t-1" vertex="1">
                    <mxGeometry x="420" y="340" width="96.87" height="20" as="geometry"/>
                </mxCell>
                <mxCell id="r8T7A6G1z8AMvpsxJ_Ap-6" value="" style="endArrow=block;dashed=1;endFill=0;endSize=12;html=1;exitX=0;exitY=0;exitDx=140;exitDy=40;exitPerimeter=0;entryX=0;entryY=0;entryDx=0;entryDy=40;entryPerimeter=0;" parent="4a_JY1OpyCybUqOFj23t-1" target="w99aPFqhCIBnIL8ZS8Le-0" edge="1">
                    <mxGeometry width="160" relative="1" as="geometry">
                        <mxPoint x="330" y="380" as="sourcePoint"/>
                        <mxPoint x="660" y="580" as="targetPoint"/>
                    </mxGeometry>
                </mxCell>
                <mxCell id="rv-qK8tmBDqp-lNyvOkd-0" value="" style="shape=folder;fontStyle=1;spacingTop=10;tabWidth=120;tabHeight=20;tabPosition=left;html=1;" parent="4a_JY1OpyCybUqOFj23t-1" vertex="1">
                    <mxGeometry x="194.99" y="340" width="140" height="60" as="geometry"/>
                </mxCell>
                <mxCell id="rv-qK8tmBDqp-lNyvOkd-1" value="UseCases" style="text;align=left;fontStyle=1;verticalAlign=middle;spacingLeft=3;spacingRight=3;strokeColor=none;rotatable=0;points=[[0,0.5],[1,0.5]];portConstraint=eastwest;" parent="4a_JY1OpyCybUqOFj23t-1" vertex="1">
                    <mxGeometry x="194.99" y="340" width="96.87" height="20" as="geometry"/>
                </mxCell>
                <mxCell id="rv-qK8tmBDqp-lNyvOkd-11" value="" style="shape=folder;fontStyle=1;spacingTop=10;tabWidth=120;tabHeight=20;tabPosition=left;html=1;" parent="4a_JY1OpyCybUqOFj23t-1" vertex="1">
                    <mxGeometry x="10" y="240" width="140" height="60" as="geometry"/>
                </mxCell>
                <mxCell id="rv-qK8tmBDqp-lNyvOkd-12" value="ConsoleApp" style="text;align=left;fontStyle=1;verticalAlign=middle;spacingLeft=3;spacingRight=3;strokeColor=none;rotatable=0;points=[[0,0.5],[1,0.5]];portConstraint=eastwest;" parent="4a_JY1OpyCybUqOFj23t-1" vertex="1">
                    <mxGeometry x="10" y="240" width="96.87" height="20" as="geometry"/>
                </mxCell>
                <mxCell id="rv-qK8tmBDqp-lNyvOkd-18" value="" style="shape=folder;fontStyle=1;spacingTop=10;tabWidth=106;tabHeight=20;tabPosition=left;html=1;" parent="4a_JY1OpyCybUqOFj23t-1" vertex="1">
                    <mxGeometry x="654.99" y="470" width="140" height="60" as="geometry"/>
                </mxCell>
                <mxCell id="rv-qK8tmBDqp-lNyvOkd-19" value="Models" style="text;align=left;fontStyle=1;verticalAlign=middle;spacingLeft=3;spacingRight=3;strokeColor=none;rotatable=0;points=[[0,0.5],[1,0.5]];portConstraint=eastwest;" parent="4a_JY1OpyCybUqOFj23t-1" vertex="1">
                    <mxGeometry x="654.99" y="470" width="96.87" height="20" as="geometry"/>
                </mxCell>
                <mxCell id="VbVltlejrLRHrprFj22p-1" value="" style="shape=folder;fontStyle=1;spacingTop=10;tabWidth=120;tabHeight=20;tabPosition=left;html=1;" parent="4a_JY1OpyCybUqOFj23t-1" vertex="1">
                    <mxGeometry x="10" y="340" width="140" height="60" as="geometry"/>
                </mxCell>
                <mxCell id="VbVltlejrLRHrprFj22p-2" value="WebApp" style="text;align=left;fontStyle=1;verticalAlign=middle;spacingLeft=3;spacingRight=3;strokeColor=none;rotatable=0;points=[[0,0.5],[1,0.5]];portConstraint=eastwest;" parent="4a_JY1OpyCybUqOFj23t-1" vertex="1">
                    <mxGeometry x="10" y="340" width="96.87" height="20" as="geometry"/>
                </mxCell>
                <mxCell id="VbVltlejrLRHrprFj22p-3" value="" style="shape=folder;fontStyle=1;spacingTop=10;tabWidth=120;tabHeight=20;tabPosition=left;html=1;" parent="4a_JY1OpyCybUqOFj23t-1" vertex="1">
                    <mxGeometry x="10" y="440" width="140" height="60" as="geometry"/>
                </mxCell>
                <mxCell id="VbVltlejrLRHrprFj22p-4" value="WpfApp" style="text;align=left;fontStyle=1;verticalAlign=middle;spacingLeft=3;spacingRight=3;strokeColor=none;rotatable=0;points=[[0,0.5],[1,0.5]];portConstraint=eastwest;" parent="4a_JY1OpyCybUqOFj23t-1" vertex="1">
                    <mxGeometry x="10" y="440" width="96.87" height="20" as="geometry"/>
                </mxCell>
                <mxCell id="VbVltlejrLRHrprFj22p-6" value="UseCases" style="text;html=1;strokeColor=none;fillColor=none;align=center;verticalAlign=middle;whiteSpace=wrap;rounded=0;" parent="4a_JY1OpyCybUqOFj23t-1" vertex="1">
                    <mxGeometry x="224.99" y="370" width="90" height="20" as="geometry"/>
                </mxCell>
                <mxCell id="VbVltlejrLRHrprFj22p-8" value="サービスI/F" style="text;html=1;strokeColor=none;fillColor=none;align=center;verticalAlign=middle;whiteSpace=wrap;rounded=0;" parent="4a_JY1OpyCybUqOFj23t-1" vertex="1">
                    <mxGeometry x="446.87" y="370" width="80" height="20" as="geometry"/>
                </mxCell>
                <mxCell id="VbVltlejrLRHrprFj22p-15" value="ドメインモデル" style="text;html=1;strokeColor=none;fillColor=none;align=center;verticalAlign=middle;whiteSpace=wrap;rounded=0;" parent="4a_JY1OpyCybUqOFj23t-1" vertex="1">
                    <mxGeometry x="674.99" y="500" width="100" height="20" as="geometry"/>
                </mxCell>
                <mxCell id="VbVltlejrLRHrprFj22p-16" value="" style="endArrow=block;dashed=1;endFill=0;endSize=12;html=1;entryX=0.723;entryY=-0.15;entryDx=0;entryDy=0;entryPerimeter=0;" parent="4a_JY1OpyCybUqOFj23t-1" target="rv-qK8tmBDqp-lNyvOkd-19" edge="1">
                    <mxGeometry width="160" relative="1" as="geometry">
                        <mxPoint x="725.0014463917523" y="400" as="sourcePoint"/>
                        <mxPoint x="649.94" y="469.5" as="targetPoint"/>
                    </mxGeometry>
                </mxCell>
                <mxCell id="VbVltlejrLRHrprFj22p-18" value="" style="endArrow=block;dashed=1;endFill=0;endSize=12;html=1;entryX=0;entryY=0;entryDx=0;entryDy=40;entryPerimeter=0;exitX=0;exitY=0;exitDx=140;exitDy=40;exitPerimeter=0;" parent="4a_JY1OpyCybUqOFj23t-1" source="w99aPFqhCIBnIL8ZS8Le-0" edge="1">
                    <mxGeometry width="160" relative="1" as="geometry">
                        <mxPoint x="560" y="380" as="sourcePoint"/>
                        <mxPoint x="654.9899999999998" y="380" as="targetPoint"/>
                    </mxGeometry>
                </mxCell>
                <mxCell id="VbVltlejrLRHrprFj22p-39" value="&lt;font style=&quot;font-size: 18px&quot;&gt;アプリケーション&lt;/font&gt;" style="text;html=1;strokeColor=none;fillColor=none;align=center;verticalAlign=middle;whiteSpace=wrap;rounded=0;" parent="4a_JY1OpyCybUqOFj23t-1" vertex="1">
                    <mxGeometry y="190" width="163.43" height="20" as="geometry"/>
                </mxCell>
                <mxCell id="VbVltlejrLRHrprFj22p-40" value="&lt;span style=&quot;font-size: 18px;&quot;&gt;コントローラー&lt;/span&gt;" style="text;html=1;strokeColor=none;fillColor=none;align=center;verticalAlign=middle;whiteSpace=wrap;rounded=0;" parent="4a_JY1OpyCybUqOFj23t-1" vertex="1">
                    <mxGeometry x="183.28" y="190" width="163.43" height="20" as="geometry"/>
                </mxCell>
                <mxCell id="VbVltlejrLRHrprFj22p-41" value="&lt;span style=&quot;font-size: 18px&quot;&gt;ビジネスロジック&lt;/span&gt;" style="text;html=1;strokeColor=none;fillColor=none;align=center;verticalAlign=middle;whiteSpace=wrap;rounded=0;" parent="4a_JY1OpyCybUqOFj23t-1" vertex="1">
                    <mxGeometry x="406.57" y="190" width="163.43" height="20" as="geometry"/>
                </mxCell>
                <mxCell id="VbVltlejrLRHrprFj22p-42" value="&lt;span style=&quot;font-size: 18px&quot;&gt;データアクセス&lt;/span&gt;" style="text;html=1;strokeColor=none;fillColor=none;align=center;verticalAlign=middle;whiteSpace=wrap;rounded=0;" parent="4a_JY1OpyCybUqOFj23t-1" vertex="1">
                    <mxGeometry x="643.28" y="190" width="163.43" height="20" as="geometry"/>
                </mxCell>
                <mxCell id="VbVltlejrLRHrprFj22p-46" value="" style="endArrow=block;dashed=1;endFill=0;endSize=12;html=1;exitX=0;exitY=0;exitDx=140;exitDy=40;exitPerimeter=0;entryX=0;entryY=0;entryDx=0;entryDy=40;entryPerimeter=0;" parent="4a_JY1OpyCybUqOFj23t-1" source="rv-qK8tmBDqp-lNyvOkd-11" edge="1">
                    <mxGeometry width="160" relative="1" as="geometry">
                        <mxPoint x="990" y="290" as="sourcePoint"/>
                        <mxPoint x="190" y="380" as="targetPoint"/>
                    </mxGeometry>
                </mxCell>
                <mxCell id="VbVltlejrLRHrprFj22p-47" value="&lt;h1&gt;ソリューション構造&lt;/h1&gt;&lt;p&gt;StairWayデザインパターンを採用し、&lt;/p&gt;&lt;p&gt;インターフェイスとその実装を異なるアセンブリに配置することで、独立して変更を可能とする&lt;/p&gt;" style="text;html=1;strokeColor=none;fillColor=none;spacing=5;spacingTop=-20;whiteSpace=wrap;overflow=hidden;rounded=0;" parent="4a_JY1OpyCybUqOFj23t-1" vertex="1">
                    <mxGeometry x="10" y="20" width="730" height="120" as="geometry"/>
                </mxCell>
                <mxCell id="vA-2XF-p2nvb2Rn4c5Ou-0" value="" style="shape=folder;fontStyle=1;spacingTop=10;tabWidth=106;tabHeight=20;tabPosition=left;html=1;" parent="4a_JY1OpyCybUqOFj23t-1" vertex="1">
                    <mxGeometry x="430" y="470" width="140" height="60" as="geometry"/>
                </mxCell>
                <mxCell id="vA-2XF-p2nvb2Rn4c5Ou-1" value="Framework" style="text;align=left;fontStyle=1;verticalAlign=middle;spacingLeft=3;spacingRight=3;strokeColor=none;rotatable=0;points=[[0,0.5],[1,0.5]];portConstraint=eastwest;" parent="4a_JY1OpyCybUqOFj23t-1" vertex="1">
                    <mxGeometry x="430" y="470" width="96.87" height="20" as="geometry"/>
                </mxCell>
                <mxCell id="vA-2XF-p2nvb2Rn4c5Ou-2" value="ドメインモデル" style="text;html=1;strokeColor=none;fillColor=none;align=center;verticalAlign=middle;whiteSpace=wrap;rounded=0;" parent="4a_JY1OpyCybUqOFj23t-1" vertex="1">
                    <mxGeometry x="450" y="500" width="100" height="20" as="geometry"/>
                </mxCell>
                <mxCell id="vA-2XF-p2nvb2Rn4c5Ou-3" value="" style="shape=folder;fontStyle=1;spacingTop=10;tabWidth=106;tabHeight=20;tabPosition=left;html=1;" parent="4a_JY1OpyCybUqOFj23t-1" vertex="1">
                    <mxGeometry x="654.99" y="340" width="140" height="60" as="geometry"/>
                </mxCell>
                <mxCell id="vA-2XF-p2nvb2Rn4c5Ou-4" value="Repository" style="text;align=left;fontStyle=1;verticalAlign=middle;spacingLeft=3;spacingRight=3;strokeColor=none;rotatable=0;points=[[0,0.5],[1,0.5]];portConstraint=eastwest;" parent="4a_JY1OpyCybUqOFj23t-1" vertex="1">
                    <mxGeometry x="654.99" y="340" width="96.87" height="20" as="geometry"/>
                </mxCell>
                <mxCell id="vA-2XF-p2nvb2Rn4c5Ou-5" value="ドメインモデル" style="text;html=1;strokeColor=none;fillColor=none;align=center;verticalAlign=middle;whiteSpace=wrap;rounded=0;" parent="4a_JY1OpyCybUqOFj23t-1" vertex="1">
                    <mxGeometry x="674.99" y="370" width="100" height="20" as="geometry"/>
                </mxCell>
            </root>
        </mxGraphModel>
    </diagram>
    <diagram name="Solutionのコピー" id="ye9o7iQ25ytdHfI6PLPY">
        <mxGraphModel dx="1204" dy="779" grid="1" gridSize="10" guides="1" tooltips="1" connect="1" arrows="1" fold="1" page="1" pageScale="1" pageWidth="827" pageHeight="1169" math="0" shadow="0">
            <root>
                <mxCell id="V_VUrnyOWE6BKwKS5kDd-0"/>
                <mxCell id="V_VUrnyOWE6BKwKS5kDd-1" parent="V_VUrnyOWE6BKwKS5kDd-0"/>
                <mxCell id="V_VUrnyOWE6BKwKS5kDd-2" value="" style="rounded=0;whiteSpace=wrap;html=1;" parent="V_VUrnyOWE6BKwKS5kDd-1" vertex="1">
                    <mxGeometry y="225" width="163.13" height="295" as="geometry"/>
                </mxCell>
                <mxCell id="V_VUrnyOWE6BKwKS5kDd-3" value="" style="rounded=0;whiteSpace=wrap;html=1;" parent="V_VUrnyOWE6BKwKS5kDd-1" vertex="1">
                    <mxGeometry x="180" y="225" width="170" height="195" as="geometry"/>
                </mxCell>
                <mxCell id="V_VUrnyOWE6BKwKS5kDd-4" value="" style="rounded=0;whiteSpace=wrap;html=1;" parent="V_VUrnyOWE6BKwKS5kDd-1" vertex="1">
                    <mxGeometry x="638.43" y="330" width="181.57" height="75" as="geometry"/>
                </mxCell>
                <mxCell id="V_VUrnyOWE6BKwKS5kDd-5" value="" style="rounded=0;whiteSpace=wrap;html=1;" parent="V_VUrnyOWE6BKwKS5kDd-1" vertex="1">
                    <mxGeometry x="396.02" y="605" width="181.57" height="195" as="geometry"/>
                </mxCell>
                <mxCell id="V_VUrnyOWE6BKwKS5kDd-6" value="" style="rounded=0;whiteSpace=wrap;html=1;" parent="V_VUrnyOWE6BKwKS5kDd-1" vertex="1">
                    <mxGeometry x="638.43" y="420" width="181.57" height="270" as="geometry"/>
                </mxCell>
                <mxCell id="V_VUrnyOWE6BKwKS5kDd-7" value="" style="rounded=0;whiteSpace=wrap;html=1;" parent="V_VUrnyOWE6BKwKS5kDd-1" vertex="1">
                    <mxGeometry x="396.87" y="330" width="183.13" height="250" as="geometry"/>
                </mxCell>
                <mxCell id="V_VUrnyOWE6BKwKS5kDd-8" value="" style="shape=folder;fontStyle=1;spacingTop=10;tabWidth=106;tabHeight=20;tabPosition=left;html=1;" parent="V_VUrnyOWE6BKwKS5kDd-1" vertex="1">
                    <mxGeometry x="420" y="340" width="140" height="60" as="geometry"/>
                </mxCell>
                <mxCell id="V_VUrnyOWE6BKwKS5kDd-9" value="Service" style="text;align=left;fontStyle=1;verticalAlign=middle;spacingLeft=3;spacingRight=3;strokeColor=none;rotatable=0;points=[[0,0.5],[1,0.5]];portConstraint=eastwest;" parent="V_VUrnyOWE6BKwKS5kDd-1" vertex="1">
                    <mxGeometry x="420" y="340" width="96.87" height="20" as="geometry"/>
                </mxCell>
                <mxCell id="V_VUrnyOWE6BKwKS5kDd-10" value="" style="shape=folder;fontStyle=1;spacingTop=10;tabWidth=120;tabHeight=20;tabPosition=left;html=1;" parent="V_VUrnyOWE6BKwKS5kDd-1" vertex="1">
                    <mxGeometry x="190" y="340" width="140" height="60" as="geometry"/>
                </mxCell>
                <mxCell id="V_VUrnyOWE6BKwKS5kDd-11" value="Controller" style="text;align=left;fontStyle=1;verticalAlign=middle;spacingLeft=3;spacingRight=3;strokeColor=none;rotatable=0;points=[[0,0.5],[1,0.5]];portConstraint=eastwest;" parent="V_VUrnyOWE6BKwKS5kDd-1" vertex="1">
                    <mxGeometry x="190" y="340" width="96.87" height="20" as="geometry"/>
                </mxCell>
                <mxCell id="V_VUrnyOWE6BKwKS5kDd-12" value="" style="shape=folder;fontStyle=1;spacingTop=10;tabWidth=106;tabHeight=20;tabPosition=left;html=1;" parent="V_VUrnyOWE6BKwKS5kDd-1" vertex="1">
                    <mxGeometry x="660" y="430" width="140" height="60" as="geometry"/>
                </mxCell>
                <mxCell id="V_VUrnyOWE6BKwKS5kDd-13" value="Repository" style="text;align=left;fontStyle=1;verticalAlign=middle;spacingLeft=3;spacingRight=3;strokeColor=none;rotatable=0;points=[[0,0.5],[1,0.5]];portConstraint=eastwest;" parent="V_VUrnyOWE6BKwKS5kDd-1" vertex="1">
                    <mxGeometry x="660" y="430" width="96.87" height="20" as="geometry"/>
                </mxCell>
                <mxCell id="V_VUrnyOWE6BKwKS5kDd-14" value="" style="endArrow=block;dashed=1;endFill=0;endSize=12;html=1;exitX=0;exitY=0;exitDx=140;exitDy=40;exitPerimeter=0;entryX=0;entryY=0;entryDx=0;entryDy=40;entryPerimeter=0;" parent="V_VUrnyOWE6BKwKS5kDd-1" source="V_VUrnyOWE6BKwKS5kDd-10" target="V_VUrnyOWE6BKwKS5kDd-8" edge="1">
                    <mxGeometry width="160" relative="1" as="geometry">
                        <mxPoint x="500" y="580" as="sourcePoint"/>
                        <mxPoint x="660" y="580" as="targetPoint"/>
                    </mxGeometry>
                </mxCell>
                <mxCell id="V_VUrnyOWE6BKwKS5kDd-15" value="" style="shape=folder;fontStyle=1;spacingTop=10;tabWidth=120;tabHeight=20;tabPosition=left;html=1;" parent="V_VUrnyOWE6BKwKS5kDd-1" vertex="1">
                    <mxGeometry x="190" y="240" width="140" height="60" as="geometry"/>
                </mxCell>
                <mxCell id="V_VUrnyOWE6BKwKS5kDd-16" value="UseCases" style="text;align=left;fontStyle=1;verticalAlign=middle;spacingLeft=3;spacingRight=3;strokeColor=none;rotatable=0;points=[[0,0.5],[1,0.5]];portConstraint=eastwest;" parent="V_VUrnyOWE6BKwKS5kDd-1" vertex="1">
                    <mxGeometry x="190" y="240" width="96.87" height="20" as="geometry"/>
                </mxCell>
                <mxCell id="V_VUrnyOWE6BKwKS5kDd-17" value="" style="endArrow=block;dashed=1;endFill=0;endSize=12;html=1;entryX=0.5;entryY=1;entryDx=0;entryDy=0;exitX=0.733;exitY=-0.1;exitDx=0;exitDy=0;exitPerimeter=0;" parent="V_VUrnyOWE6BKwKS5kDd-1" source="V_VUrnyOWE6BKwKS5kDd-37" edge="1">
                    <mxGeometry width="160" relative="1" as="geometry">
                        <mxPoint x="486.37199999999996" y="460" as="sourcePoint"/>
                        <mxPoint x="486.41999999999996" y="400" as="targetPoint"/>
                    </mxGeometry>
                </mxCell>
                <mxCell id="V_VUrnyOWE6BKwKS5kDd-18" value="" style="endArrow=block;dashed=1;endFill=0;endSize=12;html=1;exitX=0.46;exitY=-0.05;exitDx=0;exitDy=0;exitPerimeter=0;entryX=0.5;entryY=1;entryDx=0;entryDy=0;entryPerimeter=0;" parent="V_VUrnyOWE6BKwKS5kDd-1" source="V_VUrnyOWE6BKwKS5kDd-57" target="V_VUrnyOWE6BKwKS5kDd-12" edge="1">
                    <mxGeometry width="160" relative="1" as="geometry">
                        <mxPoint x="729.5000000000001" y="559.5" as="sourcePoint"/>
                        <mxPoint x="730" y="520" as="targetPoint"/>
                    </mxGeometry>
                </mxCell>
                <mxCell id="V_VUrnyOWE6BKwKS5kDd-19" value="" style="shape=folder;fontStyle=1;spacingTop=10;tabWidth=120;tabHeight=20;tabPosition=left;html=1;" parent="V_VUrnyOWE6BKwKS5kDd-1" vertex="1">
                    <mxGeometry x="10" y="240" width="140" height="60" as="geometry"/>
                </mxCell>
                <mxCell id="V_VUrnyOWE6BKwKS5kDd-20" value="ConsoleApp" style="text;align=left;fontStyle=1;verticalAlign=middle;spacingLeft=3;spacingRight=3;strokeColor=none;rotatable=0;points=[[0,0.5],[1,0.5]];portConstraint=eastwest;" parent="V_VUrnyOWE6BKwKS5kDd-1" vertex="1">
                    <mxGeometry x="10" y="240" width="96.87" height="20" as="geometry"/>
                </mxCell>
                <mxCell id="V_VUrnyOWE6BKwKS5kDd-21" value="" style="shape=folder;fontStyle=1;spacingTop=10;tabWidth=110;tabHeight=20;tabPosition=left;html=1;" parent="V_VUrnyOWE6BKwKS5kDd-1" vertex="1">
                    <mxGeometry x="420" y="510" width="139.94" height="60" as="geometry"/>
                </mxCell>
                <mxCell id="V_VUrnyOWE6BKwKS5kDd-22" value="Service.Covid19" style="text;align=left;fontStyle=1;verticalAlign=middle;spacingLeft=3;spacingRight=3;strokeColor=none;rotatable=0;points=[[0,0.5],[1,0.5]];portConstraint=eastwest;" parent="V_VUrnyOWE6BKwKS5kDd-1" vertex="1">
                    <mxGeometry x="420" y="510" width="150" height="20" as="geometry"/>
                </mxCell>
                <mxCell id="V_VUrnyOWE6BKwKS5kDd-23" value="" style="shape=folder;fontStyle=1;spacingTop=10;tabWidth=106;tabHeight=20;tabPosition=left;html=1;" parent="V_VUrnyOWE6BKwKS5kDd-1" vertex="1">
                    <mxGeometry x="660" y="340" width="140" height="60" as="geometry"/>
                </mxCell>
                <mxCell id="V_VUrnyOWE6BKwKS5kDd-24" value="Models" style="text;align=left;fontStyle=1;verticalAlign=middle;spacingLeft=3;spacingRight=3;strokeColor=none;rotatable=0;points=[[0,0.5],[1,0.5]];portConstraint=eastwest;" parent="V_VUrnyOWE6BKwKS5kDd-1" vertex="1">
                    <mxGeometry x="660" y="340" width="96.87" height="20" as="geometry"/>
                </mxCell>
                <mxCell id="V_VUrnyOWE6BKwKS5kDd-25" value="" style="shape=folder;fontStyle=1;spacingTop=10;tabWidth=120;tabHeight=20;tabPosition=left;html=1;" parent="V_VUrnyOWE6BKwKS5kDd-1" vertex="1">
                    <mxGeometry x="10" y="340" width="140" height="60" as="geometry"/>
                </mxCell>
                <mxCell id="V_VUrnyOWE6BKwKS5kDd-26" value="WebApp" style="text;align=left;fontStyle=1;verticalAlign=middle;spacingLeft=3;spacingRight=3;strokeColor=none;rotatable=0;points=[[0,0.5],[1,0.5]];portConstraint=eastwest;" parent="V_VUrnyOWE6BKwKS5kDd-1" vertex="1">
                    <mxGeometry x="10" y="340" width="96.87" height="20" as="geometry"/>
                </mxCell>
                <mxCell id="V_VUrnyOWE6BKwKS5kDd-27" value="" style="shape=folder;fontStyle=1;spacingTop=10;tabWidth=120;tabHeight=20;tabPosition=left;html=1;" parent="V_VUrnyOWE6BKwKS5kDd-1" vertex="1">
                    <mxGeometry x="10" y="440" width="140" height="60" as="geometry"/>
                </mxCell>
                <mxCell id="V_VUrnyOWE6BKwKS5kDd-28" value="WpfApp" style="text;align=left;fontStyle=1;verticalAlign=middle;spacingLeft=3;spacingRight=3;strokeColor=none;rotatable=0;points=[[0,0.5],[1,0.5]];portConstraint=eastwest;" parent="V_VUrnyOWE6BKwKS5kDd-1" vertex="1">
                    <mxGeometry x="10" y="440" width="96.87" height="20" as="geometry"/>
                </mxCell>
                <mxCell id="V_VUrnyOWE6BKwKS5kDd-29" value="UseCases" style="text;html=1;strokeColor=none;fillColor=none;align=center;verticalAlign=middle;whiteSpace=wrap;rounded=0;" parent="V_VUrnyOWE6BKwKS5kDd-1" vertex="1">
                    <mxGeometry x="220" y="270" width="90" height="20" as="geometry"/>
                </mxCell>
                <mxCell id="V_VUrnyOWE6BKwKS5kDd-30" value="コントローラI/F" style="text;html=1;strokeColor=none;fillColor=none;align=center;verticalAlign=middle;whiteSpace=wrap;rounded=0;" parent="V_VUrnyOWE6BKwKS5kDd-1" vertex="1">
                    <mxGeometry x="220" y="370" width="80" height="20" as="geometry"/>
                </mxCell>
                <mxCell id="V_VUrnyOWE6BKwKS5kDd-31" value="サービスI/F" style="text;html=1;strokeColor=none;fillColor=none;align=center;verticalAlign=middle;whiteSpace=wrap;rounded=0;" parent="V_VUrnyOWE6BKwKS5kDd-1" vertex="1">
                    <mxGeometry x="446.87" y="370" width="80" height="20" as="geometry"/>
                </mxCell>
                <mxCell id="V_VUrnyOWE6BKwKS5kDd-32" value="Covid19&lt;br&gt;APIサービス" style="text;html=1;strokeColor=none;fillColor=none;align=center;verticalAlign=middle;whiteSpace=wrap;rounded=0;" parent="V_VUrnyOWE6BKwKS5kDd-1" vertex="1">
                    <mxGeometry x="446.81" y="540" width="80" height="20" as="geometry"/>
                </mxCell>
                <mxCell id="V_VUrnyOWE6BKwKS5kDd-33" value="リポジトリI/F" style="text;html=1;strokeColor=none;fillColor=none;align=center;verticalAlign=middle;whiteSpace=wrap;rounded=0;" parent="V_VUrnyOWE6BKwKS5kDd-1" vertex="1">
                    <mxGeometry x="690" y="460" width="80" height="20" as="geometry"/>
                </mxCell>
                <mxCell id="V_VUrnyOWE6BKwKS5kDd-34" value="" style="endArrow=block;dashed=1;endFill=0;endSize=12;html=1;entryX=0.75;entryY=1;entryDx=0;entryDy=0;exitX=0.693;exitY=-0.15;exitDx=0;exitDy=0;exitPerimeter=0;entryPerimeter=0;" parent="V_VUrnyOWE6BKwKS5kDd-1" source="V_VUrnyOWE6BKwKS5kDd-22" target="V_VUrnyOWE6BKwKS5kDd-8" edge="1">
                    <mxGeometry width="160" relative="1" as="geometry">
                        <mxPoint x="320" y="520" as="sourcePoint"/>
                        <mxPoint x="320.45000000000005" y="492" as="targetPoint"/>
                    </mxGeometry>
                </mxCell>
                <mxCell id="V_VUrnyOWE6BKwKS5kDd-35" value="" style="group" parent="V_VUrnyOWE6BKwKS5kDd-1" vertex="1" connectable="0">
                    <mxGeometry x="420" y="430" width="140" height="60" as="geometry"/>
                </mxCell>
                <mxCell id="V_VUrnyOWE6BKwKS5kDd-36" value="" style="shape=folder;fontStyle=1;spacingTop=10;tabWidth=100;tabHeight=20;tabPosition=left;html=1;" parent="V_VUrnyOWE6BKwKS5kDd-35" vertex="1">
                    <mxGeometry width="140" height="60" as="geometry"/>
                </mxCell>
                <mxCell id="V_VUrnyOWE6BKwKS5kDd-37" value="Service.Api" style="text;align=left;fontStyle=1;verticalAlign=middle;spacingLeft=3;spacingRight=3;strokeColor=none;rotatable=0;points=[[0,0.5],[1,0.5]];portConstraint=eastwest;" parent="V_VUrnyOWE6BKwKS5kDd-35" vertex="1">
                    <mxGeometry width="90" height="20" as="geometry"/>
                </mxCell>
                <mxCell id="V_VUrnyOWE6BKwKS5kDd-38" value="アプリケーション&lt;br&gt;APIサービス" style="text;html=1;strokeColor=none;fillColor=none;align=center;verticalAlign=middle;whiteSpace=wrap;rounded=0;" parent="V_VUrnyOWE6BKwKS5kDd-35" vertex="1">
                    <mxGeometry y="30" width="140" height="20" as="geometry"/>
                </mxCell>
                <mxCell id="V_VUrnyOWE6BKwKS5kDd-39" value="" style="endArrow=block;dashed=1;endFill=0;endSize=12;html=1;exitX=0.507;exitY=0.033;exitDx=0;exitDy=0;exitPerimeter=0;entryX=0.5;entryY=1;entryDx=0;entryDy=0;entryPerimeter=0;" parent="V_VUrnyOWE6BKwKS5kDd-1" source="V_VUrnyOWE6BKwKS5kDd-12" target="V_VUrnyOWE6BKwKS5kDd-23" edge="1">
                    <mxGeometry width="160" relative="1" as="geometry">
                        <mxPoint x="820" y="380" as="sourcePoint"/>
                        <mxPoint x="821" y="341" as="targetPoint"/>
                    </mxGeometry>
                </mxCell>
                <mxCell id="V_VUrnyOWE6BKwKS5kDd-40" value="ドメインモデル" style="text;html=1;strokeColor=none;fillColor=none;align=center;verticalAlign=middle;whiteSpace=wrap;rounded=0;" parent="V_VUrnyOWE6BKwKS5kDd-1" vertex="1">
                    <mxGeometry x="680" y="370" width="100" height="20" as="geometry"/>
                </mxCell>
                <mxCell id="V_VUrnyOWE6BKwKS5kDd-41" value="" style="endArrow=block;dashed=1;endFill=0;endSize=12;html=1;exitX=0;exitY=0;exitDx=140;exitDy=40;exitPerimeter=0;entryX=0;entryY=0;entryDx=0;entryDy=40;entryPerimeter=0;" parent="V_VUrnyOWE6BKwKS5kDd-1" target="V_VUrnyOWE6BKwKS5kDd-12" edge="1">
                    <mxGeometry width="160" relative="1" as="geometry">
                        <mxPoint x="559.94" y="469.5" as="sourcePoint"/>
                        <mxPoint x="649.94" y="469.5" as="targetPoint"/>
                    </mxGeometry>
                </mxCell>
                <mxCell id="V_VUrnyOWE6BKwKS5kDd-42" value="" style="endArrow=block;dashed=1;endFill=0;endSize=12;html=1;exitX=0;exitY=0;exitDx=139.94;exitDy=40;exitPerimeter=0;entryX=0;entryY=0;entryDx=0;entryDy=40;entryPerimeter=0;" parent="V_VUrnyOWE6BKwKS5kDd-1" source="V_VUrnyOWE6BKwKS5kDd-21" target="V_VUrnyOWE6BKwKS5kDd-12" edge="1">
                    <mxGeometry width="160" relative="1" as="geometry">
                        <mxPoint x="560" y="549.5" as="sourcePoint"/>
                        <mxPoint x="660.06" y="550" as="targetPoint"/>
                    </mxGeometry>
                </mxCell>
                <mxCell id="V_VUrnyOWE6BKwKS5kDd-43" value="" style="endArrow=block;dashed=1;endFill=0;endSize=12;html=1;entryX=0;entryY=0;entryDx=0;entryDy=40;entryPerimeter=0;" parent="V_VUrnyOWE6BKwKS5kDd-1" target="V_VUrnyOWE6BKwKS5kDd-23" edge="1">
                    <mxGeometry width="160" relative="1" as="geometry">
                        <mxPoint x="560" y="380" as="sourcePoint"/>
                        <mxPoint x="650" y="379.5" as="targetPoint"/>
                    </mxGeometry>
                </mxCell>
                <mxCell id="V_VUrnyOWE6BKwKS5kDd-44" value="" style="shape=folder;fontStyle=1;spacingTop=10;tabWidth=106;tabHeight=20;tabPosition=left;html=1;" parent="V_VUrnyOWE6BKwKS5kDd-1" vertex="1">
                    <mxGeometry x="420" y="610" width="140" height="60" as="geometry"/>
                </mxCell>
                <mxCell id="V_VUrnyOWE6BKwKS5kDd-45" value="Plugins" style="text;align=left;fontStyle=1;verticalAlign=middle;spacingLeft=3;spacingRight=3;strokeColor=none;rotatable=0;points=[[0,0.5],[1,0.5]];portConstraint=eastwest;" parent="V_VUrnyOWE6BKwKS5kDd-1" vertex="1">
                    <mxGeometry x="420" y="610" width="96.87" height="20" as="geometry"/>
                </mxCell>
                <mxCell id="V_VUrnyOWE6BKwKS5kDd-46" value="プラグインI/F" style="text;html=1;strokeColor=none;fillColor=none;align=center;verticalAlign=middle;whiteSpace=wrap;rounded=0;" parent="V_VUrnyOWE6BKwKS5kDd-1" vertex="1">
                    <mxGeometry x="446.87" y="640" width="80" height="20" as="geometry"/>
                </mxCell>
                <mxCell id="V_VUrnyOWE6BKwKS5kDd-47" value="" style="shape=folder;fontStyle=1;spacingTop=10;tabWidth=106;tabHeight=20;tabPosition=left;html=1;" parent="V_VUrnyOWE6BKwKS5kDd-1" vertex="1">
                    <mxGeometry x="419.94" y="700" width="140" height="60" as="geometry"/>
                </mxCell>
                <mxCell id="V_VUrnyOWE6BKwKS5kDd-48" value="Plugins.Log" style="text;align=left;fontStyle=1;verticalAlign=middle;spacingLeft=3;spacingRight=3;strokeColor=none;rotatable=0;points=[[0,0.5],[1,0.5]];portConstraint=eastwest;" parent="V_VUrnyOWE6BKwKS5kDd-1" vertex="1">
                    <mxGeometry x="419.94" y="700" width="96.87" height="20" as="geometry"/>
                </mxCell>
                <mxCell id="V_VUrnyOWE6BKwKS5kDd-49" value="Log機能&lt;br&gt;(NLogアダプタ)" style="text;html=1;strokeColor=none;fillColor=none;align=center;verticalAlign=middle;whiteSpace=wrap;rounded=0;" parent="V_VUrnyOWE6BKwKS5kDd-1" vertex="1">
                    <mxGeometry x="440" y="730" width="110" height="20" as="geometry"/>
                </mxCell>
                <mxCell id="V_VUrnyOWE6BKwKS5kDd-50" value="" style="shape=folder;fontStyle=1;spacingTop=10;tabWidth=120;tabHeight=20;tabPosition=left;html=1;" parent="V_VUrnyOWE6BKwKS5kDd-1" vertex="1">
                    <mxGeometry x="660" y="610" width="140" height="60" as="geometry"/>
                </mxCell>
                <mxCell id="V_VUrnyOWE6BKwKS5kDd-51" value="Repository.Covid19" style="text;align=left;fontStyle=1;verticalAlign=middle;spacingLeft=3;spacingRight=3;strokeColor=none;rotatable=0;points=[[0,0.5],[1,0.5]];portConstraint=eastwest;" parent="V_VUrnyOWE6BKwKS5kDd-1" vertex="1">
                    <mxGeometry x="660" y="610" width="130" height="20" as="geometry"/>
                </mxCell>
                <mxCell id="V_VUrnyOWE6BKwKS5kDd-52" value="" style="endArrow=block;dashed=1;endFill=0;endSize=12;html=1;exitX=0;exitY=0;exitDx=140;exitDy=40;exitPerimeter=0;entryX=0;entryY=0;entryDx=0;entryDy=30;entryPerimeter=0;" parent="V_VUrnyOWE6BKwKS5kDd-1" source="V_VUrnyOWE6BKwKS5kDd-10" target="V_VUrnyOWE6BKwKS5kDd-44" edge="1">
                    <mxGeometry width="160" relative="1" as="geometry">
                        <mxPoint x="340" y="450" as="sourcePoint"/>
                        <mxPoint x="430" y="450" as="targetPoint"/>
                    </mxGeometry>
                </mxCell>
                <mxCell id="V_VUrnyOWE6BKwKS5kDd-53" value="" style="endArrow=block;dashed=1;endFill=0;endSize=12;html=1;entryX=0.5;entryY=1;entryDx=0;entryDy=0;exitX=0.723;exitY=0;exitDx=0;exitDy=0;exitPerimeter=0;entryPerimeter=0;" parent="V_VUrnyOWE6BKwKS5kDd-1" source="V_VUrnyOWE6BKwKS5kDd-48" target="V_VUrnyOWE6BKwKS5kDd-44" edge="1">
                    <mxGeometry width="160" relative="1" as="geometry">
                        <mxPoint x="270" y="620" as="sourcePoint"/>
                        <mxPoint x="270.45000000000005" y="592" as="targetPoint"/>
                    </mxGeometry>
                </mxCell>
                <mxCell id="V_VUrnyOWE6BKwKS5kDd-54" value="" style="endArrow=block;dashed=1;endFill=0;endSize=12;html=1;exitX=0.777;exitY=0.1;exitDx=0;exitDy=0;exitPerimeter=0;" parent="V_VUrnyOWE6BKwKS5kDd-1" source="V_VUrnyOWE6BKwKS5kDd-51" edge="1">
                    <mxGeometry width="160" relative="1" as="geometry">
                        <mxPoint x="610" y="490" as="sourcePoint"/>
                        <mxPoint x="761" y="489" as="targetPoint"/>
                    </mxGeometry>
                </mxCell>
                <mxCell id="V_VUrnyOWE6BKwKS5kDd-55" value="" style="group" parent="V_VUrnyOWE6BKwKS5kDd-1" vertex="1" connectable="0">
                    <mxGeometry x="660" y="530" width="150" height="60" as="geometry"/>
                </mxCell>
                <mxCell id="V_VUrnyOWE6BKwKS5kDd-56" value="" style="shape=folder;fontStyle=1;spacingTop=10;tabWidth=110;tabHeight=20;tabPosition=left;html=1;" parent="V_VUrnyOWE6BKwKS5kDd-55" vertex="1">
                    <mxGeometry width="140" height="60" as="geometry"/>
                </mxCell>
                <mxCell id="V_VUrnyOWE6BKwKS5kDd-57" value="Repository.Api" style="text;align=left;fontStyle=1;verticalAlign=middle;spacingLeft=3;spacingRight=3;strokeColor=none;rotatable=0;points=[[0,0.5],[1,0.5]];portConstraint=eastwest;" parent="V_VUrnyOWE6BKwKS5kDd-55" vertex="1">
                    <mxGeometry width="150" height="20" as="geometry"/>
                </mxCell>
                <mxCell id="V_VUrnyOWE6BKwKS5kDd-58" value="アプリケーション&lt;br&gt;APIリポジトリ" style="text;html=1;strokeColor=none;fillColor=none;align=center;verticalAlign=middle;whiteSpace=wrap;rounded=0;" parent="V_VUrnyOWE6BKwKS5kDd-55" vertex="1">
                    <mxGeometry x="20" y="30" width="100" height="20" as="geometry"/>
                </mxCell>
                <mxCell id="V_VUrnyOWE6BKwKS5kDd-59" value="Covid19&lt;br&gt;APIリポジトリ" style="text;html=1;strokeColor=none;fillColor=none;align=center;verticalAlign=middle;whiteSpace=wrap;rounded=0;" parent="V_VUrnyOWE6BKwKS5kDd-1" vertex="1">
                    <mxGeometry x="680" y="640" width="100" height="20" as="geometry"/>
                </mxCell>
                <mxCell id="V_VUrnyOWE6BKwKS5kDd-60" value="&lt;font style=&quot;font-size: 18px&quot;&gt;アプリケーション&lt;/font&gt;" style="text;html=1;strokeColor=none;fillColor=none;align=center;verticalAlign=middle;whiteSpace=wrap;rounded=0;" parent="V_VUrnyOWE6BKwKS5kDd-1" vertex="1">
                    <mxGeometry y="190" width="163.43" height="20" as="geometry"/>
                </mxCell>
                <mxCell id="V_VUrnyOWE6BKwKS5kDd-61" value="&lt;span style=&quot;font-size: 18px;&quot;&gt;コントローラー&lt;/span&gt;" style="text;html=1;strokeColor=none;fillColor=none;align=center;verticalAlign=middle;whiteSpace=wrap;rounded=0;" parent="V_VUrnyOWE6BKwKS5kDd-1" vertex="1">
                    <mxGeometry x="183.28" y="190" width="163.43" height="20" as="geometry"/>
                </mxCell>
                <mxCell id="V_VUrnyOWE6BKwKS5kDd-62" value="&lt;span style=&quot;font-size: 18px&quot;&gt;ビジネスロジック&lt;/span&gt;" style="text;html=1;strokeColor=none;fillColor=none;align=center;verticalAlign=middle;whiteSpace=wrap;rounded=0;" parent="V_VUrnyOWE6BKwKS5kDd-1" vertex="1">
                    <mxGeometry x="406.57" y="190" width="163.43" height="20" as="geometry"/>
                </mxCell>
                <mxCell id="V_VUrnyOWE6BKwKS5kDd-63" value="&lt;span style=&quot;font-size: 18px&quot;&gt;データアクセス&lt;/span&gt;" style="text;html=1;strokeColor=none;fillColor=none;align=center;verticalAlign=middle;whiteSpace=wrap;rounded=0;" parent="V_VUrnyOWE6BKwKS5kDd-1" vertex="1">
                    <mxGeometry x="643.28" y="190" width="163.43" height="20" as="geometry"/>
                </mxCell>
                <mxCell id="V_VUrnyOWE6BKwKS5kDd-64" value="" style="endArrow=block;dashed=1;endFill=0;endSize=12;html=1;" parent="V_VUrnyOWE6BKwKS5kDd-1" edge="1">
                    <mxGeometry width="160" relative="1" as="geometry">
                        <mxPoint x="330" y="279.5" as="sourcePoint"/>
                        <mxPoint x="400" y="280" as="targetPoint"/>
                    </mxGeometry>
                </mxCell>
                <mxCell id="V_VUrnyOWE6BKwKS5kDd-65" value="(全ての実装クラスライブラリ)" style="text;html=1;strokeColor=none;fillColor=none;align=center;verticalAlign=middle;whiteSpace=wrap;rounded=0;" parent="V_VUrnyOWE6BKwKS5kDd-1" vertex="1">
                    <mxGeometry x="396.87" y="270" width="200.06" height="20" as="geometry"/>
                </mxCell>
                <mxCell id="V_VUrnyOWE6BKwKS5kDd-66" value="" style="endArrow=block;dashed=1;endFill=0;endSize=12;html=1;" parent="V_VUrnyOWE6BKwKS5kDd-1" edge="1">
                    <mxGeometry width="160" relative="1" as="geometry">
                        <mxPoint x="150" y="279.5" as="sourcePoint"/>
                        <mxPoint x="190" y="280" as="targetPoint"/>
                    </mxGeometry>
                </mxCell>
                <mxCell id="V_VUrnyOWE6BKwKS5kDd-67" value="" style="endArrow=block;dashed=1;endFill=0;endSize=12;html=1;exitX=0;exitY=0;exitDx=140;exitDy=40;exitPerimeter=0;entryX=0;entryY=0;entryDx=0;entryDy=40;entryPerimeter=0;" parent="V_VUrnyOWE6BKwKS5kDd-1" source="V_VUrnyOWE6BKwKS5kDd-19" target="V_VUrnyOWE6BKwKS5kDd-10" edge="1">
                    <mxGeometry width="160" relative="1" as="geometry">
                        <mxPoint x="990" y="290" as="sourcePoint"/>
                        <mxPoint x="1030" y="290.5" as="targetPoint"/>
                    </mxGeometry>
                </mxCell>
                <mxCell id="V_VUrnyOWE6BKwKS5kDd-68" value="&lt;h1&gt;ソリューション構造&lt;/h1&gt;&lt;p&gt;StairWayデザインパターンを採用し、&lt;/p&gt;&lt;p&gt;インターフェイスとその実装を異なるアセンブリに配置することで、独立して変更を可能とする&lt;/p&gt;" style="text;html=1;strokeColor=none;fillColor=none;spacing=5;spacingTop=-20;whiteSpace=wrap;overflow=hidden;rounded=0;" parent="V_VUrnyOWE6BKwKS5kDd-1" vertex="1">
                    <mxGeometry x="10" y="20" width="730" height="120" as="geometry"/>
                </mxCell>
            </root>
        </mxGraphModel>
    </diagram>
    <diagram id="Xnf1JzRExoemYIaNgfK6" name="フロー図">
        <mxGraphModel dx="1204" dy="779" grid="1" gridSize="10" guides="1" tooltips="1" connect="1" arrows="1" fold="1" page="1" pageScale="1" pageWidth="827" pageHeight="1169" math="0" shadow="0">
            <root>
                <mxCell id="0"/>
                <mxCell id="1" parent="0"/>
                <mxCell id="zEsud8vM-brDmzwCmZBg-1" value="graph LR;&#10;    ConsoleApp --&gt; UseCases&#10;    ConsoleApp --&gt; Controller&#10;    WebApp&#10;    WpfApp&#10;    subgraph コントローラー&#10;        UseCases&#10;        Controller&#10;    end&#10;    subgraph TOP&#10;        direction TB&#10;    A--&gt;B;&#10;    subgraph one&#10;        direction RL&#10;    A--&gt;C;&#10;    end&#10;    B--&gt;D[(Database)];&#10;    C--&gt;D;&#10;    end" style="shadow=0;dashed=0;align=left;strokeWidth=1;shape=mxgraph.mermaid.abstract.mermaid;labelBackgroundColor=#ffffff;noLabel=1;theme=default;" parent="1" vertex="1">
                    <mxGeometry x="180" y="100" width="450" height="440" as="geometry"/>
                </mxCell>
            </root>
        </mxGraphModel>
    </diagram>
    <diagram id="WIRdpzlU8OhMBEQbXlar" name="シーケンス図">
        <mxGraphModel dx="1204" dy="779" grid="1" gridSize="10" guides="1" tooltips="1" connect="1" arrows="1" fold="1" page="1" pageScale="1" pageWidth="827" pageHeight="1169" math="0" shadow="0">
            <root>
                <mxCell id="0"/>
                <mxCell id="1" parent="0"/>
                <mxCell id="T23Qw8J2prXAU80UOcaw-1" value="sequenceDiagram&#10;    participant コントローラー&#10;    participant サービス&#10;    participant ドメインモデル&#10;    コントローラー-&gt;&gt;サービス: Hello John, how are you?&#10;    サービス-&gt;&gt;ドメインモデル: Great!&#10;    loop Healthcheck&#10;        ドメインモデル-&gt;&gt;ドメインモデル: Fight against hypochondria&#10;    end&#10;    Note right of ドメインモデル: Rational thoughts &lt;br/&gt;prevail!&#10;    ドメインモデル--&gt;&gt;サービス: Domain Exception&#10;    サービス--&gt;&gt;コントローラー: Service Exception" style="shadow=0;dashed=0;align=left;strokeWidth=1;shape=mxgraph.mermaid.abstract.mermaid;labelBackgroundColor=#ffffff;noLabel=1;theme=default;" parent="1" vertex="1">
                    <mxGeometry x="180" y="70" width="1000" height="560" as="geometry"/>
                </mxCell>
            </root>
        </mxGraphModel>
    </diagram>
    <diagram id="Fn5hVj5UIZqfwmB91jnE" name="クラス図">
        <mxGraphModel dx="1204" dy="779" grid="1" gridSize="10" guides="1" tooltips="1" connect="1" arrows="1" fold="1" page="1" pageScale="1" pageWidth="827" pageHeight="1169" math="0" shadow="0">
            <root>
                <mxCell id="0"/>
                <mxCell id="1" parent="0"/>
                <mxCell id="1gIohSCl9u5a43AbKT2j-1" value="classDiagram&#10;class AbstractProductA {&#10;    &lt;&lt;abstract&gt;&gt;&#10;  }&#10;  AbstractProductA &lt;|-- ConcreteProductA1&#10;  ConcreteProductA2 --|&gt; AbstractProductA&#10;&#10;  class AbstractProductB {&#10;    &lt;&lt;abstract&gt;&gt;&#10;  }&#10;  AbstractProductB &lt;|-- ConcreteProductB1&#10;  ConcreteProductB2 --|&gt; AbstractProductB&#10;&#10;  class ConcreteFactory1 {&#10;    +createProductA() ProductA&#10;    +createProductB() ProductB&#10;  }&#10;  class AbstractFactory {&#10;    &lt;&lt;interface&gt;&gt;&#10;    +createProductA() ProductA&#10;    +createProductB() ProductB    &#10;  }&#10;  class ConcreteFactory2 {&#10;    +createProductA() ProductA&#10;    +createProductB() ProductB&#10;  }&#10;&#10;  AbstractFactory &lt;|.. ConcreteFactory1&#10;  ConcreteFactory2 ..|&gt; AbstractFactory&#10;  &#10;  class Client {&#10;    -factory: AbstractFactory&#10;    +Client(f: AbstractFactory)&#10;    +someOperation()&#10;  }&#10;&#10;  ConcreteFactory1 ..&gt; ConcreteProductB1&#10;  ConcreteFactory1 ..&gt; ConcreteProductA1&#10;&#10;  ConcreteFactory2 ..&gt; ConcreteProductB2&#10;  ConcreteFactory2 ..&gt; ConcreteProductA2&#10;&#10;  Client --&gt; AbstractFactory" style="shadow=0;dashed=0;align=left;strokeWidth=1;shape=mxgraph.mermaid.abstract.mermaid;labelBackgroundColor=#ffffff;noLabel=1;theme=default;" parent="1" vertex="1">
                    <mxGeometry x="10" y="120" width="580" height="420" as="geometry"/>
                </mxCell>
                <mxCell id="5Bvv4OySazcxKQoVye0g-1" value="&lt;h1&gt;AbstractFactory&lt;/h1&gt;&lt;p&gt;Lorem ipsum dolor sit amet, consectetur adipisicing elit, sed do eiusmod tempor incididunt ut labore et dolore magna aliqua.&lt;/p&gt;" style="text;html=1;strokeColor=none;fillColor=none;spacing=5;spacingTop=-20;whiteSpace=wrap;overflow=hidden;rounded=0;" vertex="1" parent="1">
                    <mxGeometry x="20" y="20" width="380" height="80" as="geometry"/>
                </mxCell>
                <mxCell id="5Bvv4OySazcxKQoVye0g-2" value="&lt;h1&gt;Adaptor&lt;/h1&gt;&lt;p&gt;Lorem ipsum dolor sit amet, consectetur adipisicing elit, sed do eiusmod tempor incididunt ut labore et dolore magna aliqua.&lt;/p&gt;" style="text;html=1;strokeColor=none;fillColor=none;spacing=5;spacingTop=-20;whiteSpace=wrap;overflow=hidden;rounded=0;" vertex="1" parent="1">
                    <mxGeometry x="20" y="550" width="380" height="80" as="geometry"/>
                </mxCell>
                <mxCell id="5Bvv4OySazcxKQoVye0g-3" value="classDiagram&#10;Class01 &lt;|-- AveryLongClass : Cool&#10;Class03 *-- Class04&#10;Class05 o-- Class06&#10;Class07 .. Class08&#10;Class09 --&gt; C2 : Where am i?&#10;Class09 --* C3&#10;Class09 --|&gt; Class07&#10;Class07 : equals()&#10;Class07 : Object[] elementData&#10;Class01 : size()&#10;Class01 : int chimp&#10;Class01 : int gorilla&#10;Class08 &lt;--&gt; C2: Cool label" style="shadow=0;dashed=0;align=left;strokeWidth=1;shape=mxgraph.mermaid.abstract.mermaid;labelBackgroundColor=#ffffff;noLabel=1;theme=default;" vertex="1" parent="1">
                    <mxGeometry x="30" y="650" width="400" height="300" as="geometry"/>
                </mxCell>
                <mxCell id="5Bvv4OySazcxKQoVye0g-4" value="&lt;h1&gt;Bridge&lt;/h1&gt;&lt;p&gt;Lorem ipsum dolor sit amet, consectetur adipisicing elit, sed do eiusmod tempor incididunt ut labore et dolore magna aliqua.&lt;/p&gt;" style="text;html=1;strokeColor=none;fillColor=none;spacing=5;spacingTop=-20;whiteSpace=wrap;overflow=hidden;rounded=0;" vertex="1" parent="1">
                    <mxGeometry x="30" y="970" width="380" height="80" as="geometry"/>
                </mxCell>
                <mxCell id="5Bvv4OySazcxKQoVye0g-5" value="classDiagram&#10;direction BT&#10;  class Client&#10;  class Abstraction {&#10;    -i: Implementation&#10;    +feature1()&#10;    +feature2()&#10;  }&#10;  class Implementation {&#10;    &lt;&lt;interface&gt;&gt;&#10;    +method1()&#10;    +method2()&#10;    +method3()&#10;  }&#10;  class RefinedAbstraction {&#10;    +featureN()&#10;  }&#10;  class ConcreteImplementations&#10;  &#10;  Client --&gt; Abstraction: use&#10;  RefinedAbstraction --|&gt; Abstraction&#10;  Abstraction o--&gt; Implementation&#10;  ConcreteImplementations ..|&gt; Implementation" style="shadow=0;dashed=0;align=left;strokeWidth=1;shape=mxgraph.mermaid.abstract.mermaid;labelBackgroundColor=#ffffff;noLabel=1;theme=default;" vertex="1" parent="1">
                    <mxGeometry x="30" y="1070" width="610" height="390" as="geometry"/>
                </mxCell>
                <mxCell id="5Bvv4OySazcxKQoVye0g-6" value="&lt;h1&gt;Builder&lt;/h1&gt;&lt;p&gt;Lorem ipsum dolor sit amet, consectetur adipisicing elit, sed do eiusmod tempor incididunt ut labore et dolore magna aliqua.&lt;/p&gt;" style="text;html=1;strokeColor=none;fillColor=none;spacing=5;spacingTop=-20;whiteSpace=wrap;overflow=hidden;rounded=0;" vertex="1" parent="1">
                    <mxGeometry x="20" y="1490" width="380" height="80" as="geometry"/>
                </mxCell>
                <mxCell id="5Bvv4OySazcxKQoVye0g-7" value="classDiagram&#10;direction BT&#10;    class Builder {&#10;        &lt;&lt;interface&gt;&gt;&#10;        +reset()&#10;        +buildStepA()&#10;        +buildStepB()&#10;        +buildStepC()&#10;    }&#10;&#10;    class ConcreteBuilder1 {&#10;        -Product1 result&#10;        +reset()&#10;        +buildStepA()&#10;        +buildStepB()&#10;        +buildStepC()&#10;        +getResult() Product1&#10;    }&#10;&#10;    class ConcreteBuilder2 {&#10;        -Product2 result&#10;        +reset()&#10;        +buildStepA()&#10;        +buildStepB()&#10;        +buildStepC()&#10;        +getResult() Product2&#10;    }&#10;&#10;    class Director {&#10;        -Builder builder&#10;        +Director(builder)&#10;        +changeBuilder(builder)&#10;        +make(type)&#10;    }&#10;&#10;    class Product1&#10;    class Product2&#10;&#10;    Product1 &lt;-- ConcreteBuilder1: create&#10;    Product2 &lt;-- ConcreteBuilder2: create&#10;    ConcreteBuilder1 ..|&gt; Builder&#10;    ConcreteBuilder2 ..|&gt; Builder&#10;    Director o--&gt; Builder" style="shadow=0;dashed=0;align=left;strokeWidth=1;shape=mxgraph.mermaid.abstract.mermaid;labelBackgroundColor=#ffffff;noLabel=1;theme=default;" vertex="1" parent="1">
                    <mxGeometry x="80" y="1590" width="560" height="380" as="geometry"/>
                </mxCell>
                <mxCell id="5Bvv4OySazcxKQoVye0g-8" value="&lt;h1&gt;ChainOfResponsibility&lt;/h1&gt;&lt;p&gt;Lorem ipsum dolor sit amet, consectetur adipisicing elit, sed do eiusmod tempor incididunt ut labore et dolore magna aliqua.&lt;/p&gt;" style="text;html=1;strokeColor=none;fillColor=none;spacing=5;spacingTop=-20;whiteSpace=wrap;overflow=hidden;rounded=0;" vertex="1" parent="1">
                    <mxGeometry x="20" y="1980" width="380" height="80" as="geometry"/>
                </mxCell>
                <mxCell id="5Bvv4OySazcxKQoVye0g-9" value="classDiagram&#10;direction BT&#10;  class Handler {&#10;      &lt;&lt;interface&gt;&gt;&#10;      +setNext(h: Handler)&#10;      +handle(request)&#10;  }&#10;&#10;  class BaseHandler {&#10;      &lt;&lt;abstract&gt;&gt;&#10;      -next: Handler&#10;      +setNext(h: Handler)&#10;      +handle(request)&#10;  }&#10;&#10;  class ConcreteHandlers {&#10;      +handle(request)&#10;  }&#10;&#10;  BaseHandler o--&gt; Handler&#10;  BaseHandler ..|&gt; Handler&#10;  ConcreteHandlers --|&gt; BaseHandler&#10;  Client --&gt; Handler" style="shadow=0;dashed=0;align=left;strokeWidth=1;shape=mxgraph.mermaid.abstract.mermaid;labelBackgroundColor=#ffffff;noLabel=1;theme=default;" vertex="1" parent="1">
                    <mxGeometry x="70" y="2070" width="560" height="380" as="geometry"/>
                </mxCell>
                <mxCell id="5Bvv4OySazcxKQoVye0g-10" value="&lt;h1&gt;Command&lt;/h1&gt;&lt;p&gt;Lorem ipsum dolor sit amet, consectetur adipisicing elit, sed do eiusmod tempor incididunt ut labore et dolore magna aliqua.&lt;/p&gt;" style="text;html=1;strokeColor=none;fillColor=none;spacing=5;spacingTop=-20;whiteSpace=wrap;overflow=hidden;rounded=0;" vertex="1" parent="1">
                    <mxGeometry x="30" y="2460" width="380" height="80" as="geometry"/>
                </mxCell>
                <mxCell id="5Bvv4OySazcxKQoVye0g-11" value="classDiagram&#10;  class Client&#10;  class Invoker {&#10;      -command&#10;      +setCommand(command)&#10;      +executeCommand()&#10;  }&#10;  &#10;  class Command {&#10;      &lt;&lt;interface&gt;&gt;&#10;      +execute()&#10;  }&#10;&#10;  class Command1 {&#10;      -receiver&#10;      -params&#10;      +Command1(receiver, params)&#10;      +execute()&#10;  }&#10;&#10;  class Command2 {&#10;      +execute()&#10;  }&#10;&#10;  class Receiver {&#10;      +operation(a, b, c)&#10;  }&#10;  &#10;  Invoker --&gt; Command&#10;  Command1 ..|&gt; Command&#10;  Command1 --&gt; Receiver&#10;  Command2 ..|&gt; Command&#10;&#10;  Client --&gt; Invoker&#10;  Client ..&gt; Command1&#10;  Client --&gt; Receiver" style="shadow=0;dashed=0;align=left;strokeWidth=1;shape=mxgraph.mermaid.abstract.mermaid;labelBackgroundColor=#ffffff;noLabel=1;theme=default;" vertex="1" parent="1">
                    <mxGeometry x="100" y="2550" width="590" height="390" as="geometry"/>
                </mxCell>
                <mxCell id="5Bvv4OySazcxKQoVye0g-12" value="&lt;h1&gt;Composite&lt;/h1&gt;&lt;p&gt;Lorem ipsum dolor sit amet, consectetur adipisicing elit, sed do eiusmod tempor incididunt ut labore et dolore magna aliqua.&lt;/p&gt;" style="text;html=1;strokeColor=none;fillColor=none;spacing=5;spacingTop=-20;whiteSpace=wrap;overflow=hidden;rounded=0;" vertex="1" parent="1">
                    <mxGeometry x="20" y="2920" width="380" height="80" as="geometry"/>
                </mxCell>
                <mxCell id="5Bvv4OySazcxKQoVye0g-13" value="classDiagram&#10;  direction BT&#10;  class Client&#10;  class Component {&#10;    &lt;&lt;interface&gt;&gt;&#10;    +execute()&#10;  }&#10;  class Leaf {&#10;    +execute()&#10;  }&#10;  class Composite {&#10;    -children: Component[]&#10;    +add(c: Component)&#10;    +remove(c: Component)&#10;    +getChildren() Component[]&#10;    +execute()&#10;  }&#10;  Client --&gt; Component: use&#10;  Leaf ..|&gt; Component&#10;  Composite ..|&gt; Component&#10;  Composite o--&gt; Component " style="shadow=0;dashed=0;align=left;strokeWidth=1;shape=mxgraph.mermaid.abstract.mermaid;labelBackgroundColor=#ffffff;noLabel=1;theme=default;" vertex="1" parent="1">
                    <mxGeometry x="70" y="3010" width="400" height="300" as="geometry"/>
                </mxCell>
                <mxCell id="5Bvv4OySazcxKQoVye0g-14" value="&lt;h1&gt;Decorator&lt;/h1&gt;&lt;p&gt;Lorem ipsum dolor sit amet, consectetur adipisicing elit, sed do eiusmod tempor incididunt ut labore et dolore magna aliqua.&lt;/p&gt;" style="text;html=1;strokeColor=none;fillColor=none;spacing=5;spacingTop=-20;whiteSpace=wrap;overflow=hidden;rounded=0;" vertex="1" parent="1">
                    <mxGeometry x="20" y="3320" width="380" height="80" as="geometry"/>
                </mxCell>
                <mxCell id="5Bvv4OySazcxKQoVye0g-15" value="classDiagram&#10;  direction BT&#10;  class Client&#10;  class Component {&#10;    &lt;&lt;interface&gt;&gt;&#10;    +execute()&#10;  }&#10;  class ConcreteComponent {&#10;    +execute()&#10;  }&#10;  class BaseDecorator {&#10;    -wrappee: Component&#10;    +BaseDecorator(c: Component)&#10;    +execute()&#10;  }&#10;  class ConcreteDecorators {&#10;    +execute()&#10;    +extra()&#10;  }&#10;  &#10;  Client --&gt; Component: use&#10;  ConcreteComponent ..|&gt; Component&#10;  BaseDecorator ..|&gt; Component&#10;  ConcreteDecorators --|&gt; BaseDecorator&#10;  BaseDecorator o--&gt; Component" style="shadow=0;dashed=0;align=left;strokeWidth=1;shape=mxgraph.mermaid.abstract.mermaid;labelBackgroundColor=#ffffff;noLabel=1;theme=default;" vertex="1" parent="1">
                    <mxGeometry x="60" y="3400" width="550" height="360" as="geometry"/>
                </mxCell>
                <mxCell id="5Bvv4OySazcxKQoVye0g-16" value="&lt;h1&gt;Facade&lt;/h1&gt;&lt;p&gt;Lorem ipsum dolor sit amet, consectetur adipisicing elit, sed do eiusmod tempor incididunt ut labore et dolore magna aliqua.&lt;/p&gt;" style="text;html=1;strokeColor=none;fillColor=none;spacing=5;spacingTop=-20;whiteSpace=wrap;overflow=hidden;rounded=0;" vertex="1" parent="1">
                    <mxGeometry x="30" y="3770" width="380" height="80" as="geometry"/>
                </mxCell>
                <mxCell id="5Bvv4OySazcxKQoVye0g-17" value="classDiagram&#10;  direction LR&#10;  class Client&#10;  class Facade {&#10;    -linksToSubsystemObjects&#10;    -optionalAdditionalFacade&#10;    +subsystemOperation()&#10;  }&#10;  class AdditionalFacade {&#10;    +anotherOperation()&#10;  }&#10;  Client --&gt; Facade&#10;  Facade --&gt; AdditionalFacade" style="shadow=0;dashed=0;align=left;strokeWidth=1;shape=mxgraph.mermaid.abstract.mermaid;labelBackgroundColor=#ffffff;noLabel=1;theme=default;" vertex="1" parent="1">
                    <mxGeometry x="70" y="3860" width="400" height="300" as="geometry"/>
                </mxCell>
                <mxCell id="5Bvv4OySazcxKQoVye0g-18" value="&lt;h1&gt;FactoryMethod&lt;/h1&gt;&lt;p&gt;Lorem ipsum dolor sit amet, consectetur adipisicing elit, sed do eiusmod tempor incididunt ut labore et dolore magna aliqua.&lt;/p&gt;" style="text;html=1;strokeColor=none;fillColor=none;spacing=5;spacingTop=-20;whiteSpace=wrap;overflow=hidden;rounded=0;" vertex="1" parent="1">
                    <mxGeometry x="30" y="4150" width="380" height="80" as="geometry"/>
                </mxCell>
                <mxCell id="5Bvv4OySazcxKQoVye0g-19" value="classDiagram&#10;  direction BT&#10;  class Creator{&#10;    &lt;&lt;abstract&gt;&gt;&#10;    +someOperation()&#10;    +createProduct()* Product&#10;  }&#10;  class Product{&#10;    &lt;&lt;interface&gt;&gt;&#10;    +doStuff()&#10;  }&#10;  class ConcreteCreatorA{&#10;    +createProduct() Product&#10;  }&#10;  class ConcreteCreatorB{&#10;    +createProduct() Product&#10;  }&#10;  class ConcreteProductA{&#10;  }&#10;  class ConcreteProductB{&#10;  }&#10;  &#10;  ConcreteCreatorA --|&gt; Creator&#10;  ConcreteCreatorB --|&gt; Creator&#10;  Creator --&gt; Product : Create &#10;  ConcreteProductA ..|&gt; Product&#10;  ConcreteProductB ..|&gt; Product" style="shadow=0;dashed=0;align=left;strokeWidth=1;shape=mxgraph.mermaid.abstract.mermaid;labelBackgroundColor=#ffffff;noLabel=1;theme=default;" vertex="1" parent="1">
                    <mxGeometry x="40" y="4250" width="400" height="300" as="geometry"/>
                </mxCell>
                <mxCell id="5Bvv4OySazcxKQoVye0g-20" value="&lt;h1&gt;Flyweight&lt;/h1&gt;&lt;p&gt;Lorem ipsum dolor sit amet, consectetur adipisicing elit, sed do eiusmod tempor incididunt ut labore et dolore magna aliqua.&lt;/p&gt;" style="text;html=1;strokeColor=none;fillColor=none;spacing=5;spacingTop=-20;whiteSpace=wrap;overflow=hidden;rounded=0;" vertex="1" parent="1">
                    <mxGeometry x="30" y="4560" width="380" height="80" as="geometry"/>
                </mxCell>
                <mxCell id="5Bvv4OySazcxKQoVye0g-21" value="classDiagram&#10;  direction BT&#10;  class FlyweightFactory {&#10;      -cache: Flyweight[]&#10;      +getFlyweight(repeatingState)&#10;  }&#10;  class Context {&#10;      -uniqueState&#10;      -flyweight&#10;      +Context(repeatingState, uniqueState)&#10;      +operation()&#10;  }&#10;  class Flyweight {&#10;      -repeatingState&#10;      +operation(uniqueState)&#10;  }&#10;  FlyweightFactory o--&gt; Flyweight&#10;  Context --&gt; FlyweightFactory&#10;  Context --&gt; Flyweight&#10;  Client *--&gt; Context" style="shadow=0;dashed=0;align=left;strokeWidth=1;shape=mxgraph.mermaid.abstract.mermaid;labelBackgroundColor=#ffffff;noLabel=1;theme=default;" vertex="1" parent="1">
                    <mxGeometry x="40" y="4660" width="470" height="330" as="geometry"/>
                </mxCell>
                <mxCell id="5Bvv4OySazcxKQoVye0g-22" value="&lt;h1&gt;Iterator&lt;/h1&gt;&lt;p&gt;Lorem ipsum dolor sit amet, consectetur adipisicing elit, sed do eiusmod tempor incididunt ut labore et dolore magna aliqua.&lt;/p&gt;" style="text;html=1;strokeColor=none;fillColor=none;spacing=5;spacingTop=-20;whiteSpace=wrap;overflow=hidden;rounded=0;" vertex="1" parent="1">
                    <mxGeometry x="20" y="5010" width="380" height="80" as="geometry"/>
                </mxCell>
                <mxCell id="5Bvv4OySazcxKQoVye0g-23" value="classDiagram&#10;   direction BT&#10;    class Client&#10;    class Iterator {&#10;        &lt;&lt;interface&gt;&gt;&#10;        +getNext()&#10;        +hasMore() bool&#10;    }&#10;    class IterableCollection {&#10;        &lt;&lt;interface&gt;&gt;&#10;        +createIterator() Iterator&#10;    }&#10;    class ConcreteIterator {&#10;        -collection: ConcreteCollection&#10;        -iterationState&#10;        +ConcreteIterator(c: ConcreteCollection)&#10;        +getNext()&#10;        +hasMore() bool&#10;    }&#10;    class ConcreteCollection {&#10;        +createIterator() Iterator&#10;    }&#10;    Iterator &lt;-- Client: use&#10;    IterableCollection &lt;-- Client: use&#10;    ConcreteIterator ..|&gt; Iterator&#10;    ConcreteCollection ..|&gt; IterableCollection&#10;    ConcreteIterator &lt;--&gt; ConcreteCollection" style="shadow=0;dashed=0;align=left;strokeWidth=1;shape=mxgraph.mermaid.abstract.mermaid;labelBackgroundColor=#ffffff;noLabel=1;theme=default;" vertex="1" parent="1">
                    <mxGeometry x="60" y="5130" width="400" height="300" as="geometry"/>
                </mxCell>
                <mxCell id="5Bvv4OySazcxKQoVye0g-24" value="&lt;h1&gt;Observer&lt;/h1&gt;&lt;p&gt;Lorem ipsum dolor sit amet, consectetur adipisicing elit, sed do eiusmod tempor incididunt ut labore et dolore magna aliqua.&lt;/p&gt;" style="text;html=1;strokeColor=none;fillColor=none;spacing=5;spacingTop=-20;whiteSpace=wrap;overflow=hidden;rounded=0;" vertex="1" parent="1">
                    <mxGeometry x="40" y="5460" width="380" height="80" as="geometry"/>
                </mxCell>
                <mxCell id="5Bvv4OySazcxKQoVye0g-25" value="classDiagram&#10;  direction LR&#10;  class Publisher {&#10;      -subscribers: Subscriber[]&#10;      -mainState&#10;      +subscribe(s: Subscriber)&#10;      +unsubscribe(s: Subscriber)&#10;      +notifySubscribers()&#10;      +mainBusinessLogic()&#10;  }&#10;  class Subscriber {&#10;      &lt;&lt;interface&gt;&gt;&#10;      +upgrade(context)&#10;  }&#10;  class ConcreteSubscribers {&#10;      +update(context)&#10;  }&#10;  class Client&#10;&#10;  Publisher o--&gt; Subscriber&#10;  ConcreteSubscribers ..|&gt; Subscriber&#10;  Client --&gt; Publisher&#10;  Client ..&gt; ConcreteSubscribers" style="shadow=0;dashed=0;align=left;strokeWidth=1;shape=mxgraph.mermaid.abstract.mermaid;labelBackgroundColor=#ffffff;noLabel=1;theme=default;" vertex="1" parent="1">
                    <mxGeometry x="80" y="5570" width="400" height="300" as="geometry"/>
                </mxCell>
                <mxCell id="5Bvv4OySazcxKQoVye0g-26" value="&lt;h1&gt;Proxy&lt;/h1&gt;&lt;p&gt;Lorem ipsum dolor sit amet, consectetur adipisicing elit, sed do eiusmod tempor incididunt ut labore et dolore magna aliqua.&lt;/p&gt;" style="text;html=1;strokeColor=none;fillColor=none;spacing=5;spacingTop=-20;whiteSpace=wrap;overflow=hidden;rounded=0;" vertex="1" parent="1">
                    <mxGeometry x="34" y="5860" width="380" height="80" as="geometry"/>
                </mxCell>
                <mxCell id="5Bvv4OySazcxKQoVye0g-27" value="classDiagram&#10;  direction BT&#10;  class ServiceInterface {&#10;    &lt;&lt;interface&gt;&gt;&#10;    +operation()&#10;  }&#10;  class Proxy {&#10;    -realService: Service&#10;    +Proxy(s: Service)&#10;    +checkAccess()&#10;    +operation()&#10;  }&#10;  class Service {&#10;    +operation()&#10;  }&#10;  Client --&gt; ServiceInterface&#10;  Proxy ..|&gt; ServiceInterface&#10;  Service ..|&gt; ServiceInterface&#10;  Proxy o--&gt; Service" style="shadow=0;dashed=0;align=left;strokeWidth=1;shape=mxgraph.mermaid.abstract.mermaid;labelBackgroundColor=#ffffff;noLabel=1;theme=default;" vertex="1" parent="1">
                    <mxGeometry x="60" y="5950" width="400" height="300" as="geometry"/>
                </mxCell>
                <mxCell id="5Bvv4OySazcxKQoVye0g-28" value="&lt;h1&gt;Sigleton&lt;/h1&gt;&lt;p&gt;Lorem ipsum dolor sit amet, consectetur adipisicing elit, sed do eiusmod tempor incididunt ut labore et dolore magna aliqua.&lt;/p&gt;" style="text;html=1;strokeColor=none;fillColor=none;spacing=5;spacingTop=-20;whiteSpace=wrap;overflow=hidden;rounded=0;" vertex="1" parent="1">
                    <mxGeometry x="30" y="6260" width="380" height="80" as="geometry"/>
                </mxCell>
                <mxCell id="5Bvv4OySazcxKQoVye0g-29" value="classDiagram&#10;   direction LR&#10;    class Singleton {&#10;        -Singleton instance$&#10;        -Singleton()&#10;        +getInstance()$ Singleton&#10;    }&#10;&#10;    class Client&#10;&#10;    Client --&gt; Singleton : use&#10;    Singleton --&gt; Singleton : create, has" style="shadow=0;dashed=0;align=left;strokeWidth=1;shape=mxgraph.mermaid.abstract.mermaid;labelBackgroundColor=#ffffff;noLabel=1;theme=default;" vertex="1" parent="1">
                    <mxGeometry x="60" y="6350" width="400" height="300" as="geometry"/>
                </mxCell>
                <mxCell id="5Bvv4OySazcxKQoVye0g-30" value="&lt;h1&gt;State&lt;/h1&gt;&lt;p&gt;Lorem ipsum dolor sit amet, consectetur adipisicing elit, sed do eiusmod tempor incididunt ut labore et dolore magna aliqua.&lt;/p&gt;" style="text;html=1;strokeColor=none;fillColor=none;spacing=5;spacingTop=-20;whiteSpace=wrap;overflow=hidden;rounded=0;" vertex="1" parent="1">
                    <mxGeometry x="40" y="6660" width="380" height="80" as="geometry"/>
                </mxCell>
                <mxCell id="5Bvv4OySazcxKQoVye0g-31" value="classDiagram&#10;  direction BT&#10;  class Context {&#10;      -state&#10;      +Context(initialState)&#10;      +changeState(state)&#10;      +doThis()&#10;      +doThat()&#10;  }&#10;  class State {&#10;      &lt;&lt;interface&gt;&gt;&#10;      +doThis()&#10;      +doThat()&#10;  }&#10;  class ConcreteStates {&#10;      -context&#10;      +setContext(context)&#10;      +doThis()&#10;      +doThat()&#10;  }&#10;  class Client&#10;&#10;  Context o--&gt; State&#10;  ConcreteStates ..|&gt; State&#10;  ConcreteStates --&gt; Context&#10;  Client ..&gt; ConcreteStates&#10;  Client --&gt; Context" style="shadow=0;dashed=0;align=left;strokeWidth=1;shape=mxgraph.mermaid.abstract.mermaid;labelBackgroundColor=#ffffff;noLabel=1;theme=default;" vertex="1" parent="1">
                    <mxGeometry x="40" y="6760" width="400" height="300" as="geometry"/>
                </mxCell>
                <mxCell id="5Bvv4OySazcxKQoVye0g-32" value="&lt;h1&gt;Strategy&lt;/h1&gt;&lt;p&gt;Lorem ipsum dolor sit amet, consectetur adipisicing elit, sed do eiusmod tempor incididunt ut labore et dolore magna aliqua.&lt;/p&gt;" style="text;html=1;strokeColor=none;fillColor=none;spacing=5;spacingTop=-20;whiteSpace=wrap;overflow=hidden;rounded=0;" vertex="1" parent="1">
                    <mxGeometry x="30" y="7090" width="380" height="80" as="geometry"/>
                </mxCell>
                <mxCell id="5Bvv4OySazcxKQoVye0g-33" value="classDiagram&#10; direction BT&#10;  class Client&#10;  class Context{&#10;    -strategy&#10;    +setStrategy(strategy)&#10;    +doSomething()&#10;  }&#10;  class Strategy{&#10;    &lt;&lt;interface&gt;&gt;&#10;    +execute(data)&#10;  }&#10;  class ConcreteStrategies{&#10;    +execute(data)&#10;  }&#10;  Client --&gt; Context: use&#10;  Client ..&gt; ConcreteStrategies: create&#10;  Context o--&gt; Strategy&#10;  ConcreteStrategies ..|&gt; Strategy" style="shadow=0;dashed=0;align=left;strokeWidth=1;shape=mxgraph.mermaid.abstract.mermaid;labelBackgroundColor=#ffffff;noLabel=1;theme=default;" vertex="1" parent="1">
                    <mxGeometry x="80" y="7200" width="400" height="300" as="geometry"/>
                </mxCell>
                <mxCell id="5Bvv4OySazcxKQoVye0g-34" value="&lt;h1&gt;TemplateMethod&lt;/h1&gt;&lt;p&gt;Lorem ipsum dolor sit amet, consectetur adipisicing elit, sed do eiusmod tempor incididunt ut labore et dolore magna aliqua.&lt;/p&gt;" style="text;html=1;strokeColor=none;fillColor=none;spacing=5;spacingTop=-20;whiteSpace=wrap;overflow=hidden;rounded=0;" vertex="1" parent="1">
                    <mxGeometry x="30" y="7510" width="380" height="80" as="geometry"/>
                </mxCell>
                <mxCell id="5Bvv4OySazcxKQoVye0g-35" value="classDiagram&#10;  direction BT&#10;  class AbstractClass{&#10;    &lt;&lt;abstract&gt;&gt;&#10;    +templateMethod()&#10;    +step1()&#10;    +step2()&#10;    +step3()*&#10;    +step4()*&#10;  }&#10;  class ConcreteClass1{&#10;    +step3()&#10;    +step4()&#10;  }&#10;  class ConcreteClass2{&#10;    +step1()&#10;    +step2()&#10;    +step3()&#10;    +step4()&#10;  }&#10;  ConcreteClass1 --|&gt; AbstractClass&#10;  ConcreteClass2 --|&gt; AbstractClass" style="shadow=0;dashed=0;align=left;strokeWidth=1;shape=mxgraph.mermaid.abstract.mermaid;labelBackgroundColor=#ffffff;noLabel=1;theme=default;" vertex="1" parent="1">
                    <mxGeometry x="50" y="7598.5" width="400" height="300" as="geometry"/>
                </mxCell>
            </root>
        </mxGraphModel>
    </diagram>
    <diagram id="o2o3es-4R-hkVInqhPua" name="エンティティ図">
        <mxGraphModel grid="1" gridSize="10" guides="1" tooltips="1" connect="1" arrows="1" page="1" fold="1" pageScale="1" pageWidth="827" pageHeight="1169" math="0" shadow="0">
            <root>
                <mxCell id="PfcAji1JMvnOHSohJHiq-0"/>
                <mxCell id="PfcAji1JMvnOHSohJHiq-1" parent="PfcAji1JMvnOHSohJHiq-0"/>
                <mxCell id="PfcAji1JMvnOHSohJHiq-2" value="erDiagram&#10;    CUSTOMER ||--o{ ORDER : places&#10;    ORDER ||--|{ LINE-ITEM : contains&#10;    CUSTOMER }|..|{ DELIVERY-ADDRESS : uses" style="shadow=0;dashed=0;align=left;strokeWidth=1;shape=mxgraph.mermaid.abstract.mermaid;labelBackgroundColor=#ffffff;noLabel=1;theme=default;" parent="PfcAji1JMvnOHSohJHiq-1" vertex="1">
                    <mxGeometry x="210" y="150" width="400" height="500" as="geometry"/>
                </mxCell>
            </root>
        </mxGraphModel>
    </diagram>
    <diagram id="8bkRWyzsAi3jrrrC1ykb" name="ステート図">
        <mxGraphModel grid="1" gridSize="10" guides="1" tooltips="1" connect="1" arrows="1" page="1" fold="1" pageScale="1" pageWidth="827" pageHeight="1169" math="0" shadow="0">
            <root>
                <mxCell id="0"/>
                <mxCell id="1" parent="0"/>
                <mxCell id="gaN7oNx05HeiKOF66FF6-1" value="stateDiagram&#10;    [*] --&gt; Still&#10;    Still --&gt; [*]&#10;&#10;    Still --&gt; Moving&#10;    Moving --&gt; Still&#10;    Moving --&gt; Crash&#10;    Crash --&gt; [*]" style="shadow=0;dashed=0;align=left;strokeWidth=1;shape=mxgraph.mermaid.abstract.mermaid;labelBackgroundColor=#ffffff;noLabel=1;theme=default;" vertex="1" parent="1">
                    <mxGeometry x="290" y="60" width="280" height="400" as="geometry"/>
                </mxCell>
            </root>
        </mxGraphModel>
    </diagram>
    <diagram id="dY1ovMS5cjt-MFsGuCFC" name="ガントチャート">
        <mxGraphModel grid="1" gridSize="10" guides="1" tooltips="1" connect="1" arrows="1" page="1" fold="1" pageScale="1" pageWidth="827" pageHeight="1169" math="0" shadow="0">
            <root>
                <mxCell id="4imbhMD_-3CPegWuDNoC-0"/>
                <mxCell id="4imbhMD_-3CPegWuDNoC-1" parent="4imbhMD_-3CPegWuDNoC-0"/>
                <mxCell id="4imbhMD_-3CPegWuDNoC-2" value="gantt&#10;dateFormat  YYYY-MM-DD&#10;title Adding GANTT diagram to mermaid&#10;excludes weekdays 2014-01-10&#10;&#10;section A section&#10;Completed task            :done,    des1, 2014-01-06,2014-01-08&#10;Active task               :active,  des2, 2014-01-09, 3d&#10;Future task               :         des3, after des2, 5d&#10;Future task2               :         des4, after des3, 5d" style="shadow=0;dashed=0;align=left;strokeWidth=1;shape=mxgraph.mermaid.abstract.mermaid;labelBackgroundColor=#ffffff;noLabel=1;theme=default;" parent="4imbhMD_-3CPegWuDNoC-1" vertex="1">
                    <mxGeometry x="110" y="350" width="600" height="280" as="geometry"/>
                </mxCell>
            </root>
        </mxGraphModel>
    </diagram>
</mxfile>